ffmpeg started on 2025-06-16 at 16:07:44
Report written to "D:\Convert\FFMetrics\reports\psnr_report-6.txt"
Log level: 32
Command line:
ffmpeg -hide_banner -nostdin -i "G:\\\xc0\xed\xe8\xec\xe5\\[\xd2\xee\xef]\\\xd0\xfb\xf6\xe0\xf0\xfc-\xe2\xe0\xec\xef\xe8\xf0\\\xd2\xc2-1\\[JamClub] Vampire Knight - 01_HEVC.mkv" -i "G:\\\xc0\xed\xe8\xec\xe5\\[\xd2\xee\xef]\\\xd0\xfb\xf6\xe0\xf0\xfc-\xe2\xe0\xec\xef\xe8\xf0\\\xd2\xc2-1\\[JamClub] Vampire Knight - 01.mp4" -lavfi "[0:v]settb=AVTB,setpts=PTS-STARTPTS,format=pix_fmts=yuv420p10,fps=24000/1001,scale=1920:1080:flags=bicubic[main];[1:v]settb=AVTB,setpts=PTS-STARTPTS,format=pix_fmts=yuv420p,fps=24000/1001,scale=1920:1080:flags=bicubic[ref];[main][ref]psnr=eof_action=endall:stats_file='D\\:/Convert/FFMetrics/logs/psnr_logfile-6.txt'" -f null -
Input #0, matroska,webm, from 'G:\Аниме\[Топ]\Рыцарь-вампир\ТВ-1\[JamClub] Vampire Knight - 01_HEVC.mkv':
  Metadata:
    COMPATIBLE_BRANDS: isomiso2avc1mp41
    MAJOR_BRAND     : isom
    MINOR_VERSION   : 512
    ENCODER         : Lavf61.7.100
  Duration: 00:24:32.61, start: -0.001000, bitrate: 1105 kb/s
  Stream #0:0: Video: hevc (Main 10), yuv420p10le(tv, bt709, progressive), 1920x1080 [SAR 1:1 DAR 16:9], 23.98 fps, 23.98 tbr, 1k tbn (default)
      Metadata:
        HANDLER_NAME    : VideoHandler
        VENDOR_ID       : [0][0][0][0]
        ENCODER         : Lavc61.19.100 libx265
        BPS             : 906848
        DURATION        : 00:24:32.554708333
        NUMBER_OF_FRAMES: 43999
        NUMBER_OF_BYTES : 166923003
        _STATISTICS_WRITING_APP: mkvpropedit v66.0.0 ('Josie') 64-bit
        _STATISTICS_WRITING_DATE_UTC: 2025-06-16 07:01:52
        _STATISTICS_TAGS: BPS DURATION NUMBER_OF_FRAMES NUMBER_OF_BYTES
  Stream #0:1(eng): Audio: aac (LC), 48000 Hz, stereo, fltp (default)
      Metadata:
        HANDLER_NAME    : SoundHandler
        VENDOR_ID       : [0][0][0][0]
        ENCODER         : Lavc61.19.100 aac
        BPS             : 194416
        DURATION        : 00:24:32.570000000
        NUMBER_OF_FRAMES: 69028
        NUMBER_OF_BYTES : 35786400
        _STATISTICS_WRITING_APP: mkvpropedit v66.0.0 ('Josie') 64-bit
        _STATISTICS_WRITING_DATE_UTC: 2025-06-16 07:01:52
        _STATISTICS_TAGS: BPS DURATION NUMBER_OF_FRAMES NUMBER_OF_BYTES
Input #1, mov,mp4,m4a,3gp,3g2,mj2, from 'G:\Аниме\[Топ]\Рыцарь-вампир\ТВ-1\[JamClub] Vampire Knight - 01.mp4':
  Metadata:
    major_brand     : isom
    minor_version   : 512
    compatible_brands: isomiso2avc1mp41
    encoder         : Lavf60.16.100
  Duration: 00:24:32.59, start: 0.000000, bitrate: 3988 kb/s
  Stream #1:0[0x1](und): Video: h264 (High) (avc1 / 0x31637661), yuv420p(progressive), 1920x1080 [SAR 1:1 DAR 16:9], 3787 kb/s, 29.88 fps, 23.98 tbr, 90k tbn (default)
      Metadata:
        handler_name    : VideoHandler
        vendor_id       : [0][0][0][0]
  Stream #1:1[0x2](eng): Audio: aac (LC) (mp4a / 0x6134706D), 48000 Hz, stereo, fltp, 191 kb/s (default)
      Metadata:
        handler_name    : SoundHandler
        vendor_id       : [0][0][0][0]
Stream mapping:
  Stream #0:0 (hevc) -> settb:default
  Stream #1:0 (h264) -> settb:default
  psnr:default -> Stream #0:0 (wrapped_avframe)
  Stream #0:1 -> #0:1 (aac (native) -> pcm_s16le (native))
Output #0, null, to 'pipe:':
  Metadata:
    COMPATIBLE_BRANDS: isomiso2avc1mp41
    MAJOR_BRAND     : isom
    MINOR_VERSION   : 512
    encoder         : Lavf61.7.100
  Stream #0:0: Video: wrapped_avframe, yuv420p10le(tv, bt709, progressive), 1920x1080 [SAR 1:1 DAR 16:9], q=2-31, 200 kb/s, 23.98 fps, 23.98 tbn
      Metadata:
        encoder         : Lavc61.19.100 wrapped_avframe
  Stream #0:1(eng): Audio: pcm_s16le, 48000 Hz, stereo, s16, 1536 kb/s (default)
      Metadata:
        HANDLER_NAME    : SoundHandler
        VENDOR_ID       : [0][0][0][0]
        _STATISTICS_TAGS: BPS DURATION NUMBER_OF_FRAMES NUMBER_OF_BYTES
        BPS             : 194416
        DURATION        : 00:24:32.570000000
        NUMBER_OF_FRAMES: 69028
        NUMBER_OF_BYTES : 35786400
        _STATISTICS_WRITING_APP: mkvpropedit v66.0.0 ('Josie') 64-bit
        _STATISTICS_WRITING_DATE_UTC: 2025-06-16 07:01:52
        encoder         : Lavc61.19.100 pcm_s16le
frame=  118 fps=0.0 q=-0.0 size=N/A time=00:00:04.92 bitrate=N/A speed=9.66x    frame=  277 fps=271 q=-0.0 size=N/A time=00:00:11.55 bitrate=N/A speed=11.3x    frame=  479 fps=313 q=-0.0 size=N/A time=00:00:19.97 bitrate=N/A speed=  13x    frame=  692 fps=336 q=-0.0 size=N/A time=00:00:28.86 bitrate=N/A speed=  14x    frame=  913 fps=356 q=-0.0 size=N/A time=00:00:38.07 bitrate=N/A speed=14.8x    frame= 1110 fps=361 q=-0.0 size=N/A time=00:00:46.29 bitrate=N/A speed=  15x    frame= 1310 fps=363 q=-0.0 size=N/A time=00:00:54.63 bitrate=N/A speed=15.2x    frame= 1497 fps=364 q=-0.0 size=N/A time=00:01:02.43 bitrate=N/A speed=15.2x    frame= 1707 fps=368 q=-0.0 size=N/A time=00:01:11.19 bitrate=N/A speed=15.3x    frame= 1907 fps=369 q=-0.0 size=N/A time=00:01:19.57 bitrate=N/A speed=15.4x    frame= 2078 fps=366 q=-0.0 size=N/A time=00:01:26.66 bitrate=N/A speed=15.3x    frame= 2265 fps=366 q=-0.0 size=N/A time=00:01:34.46 bitrate=N/A speed=15.3x    frame= 2445 fps=364 q=-0.0 size=N/A time=00:01:41.97 bitrate=N/A speed=15.2x    frame= 2609 fps=361 q=-0.0 size=N/A time=00:01:48.81 bitrate=N/A speed=15.1x    frame= 2779 fps=359 q=-0.0 size=N/A time=00:01:55.90 bitrate=N/A speed=  15x    frame= 2949 fps=357 q=-0.0 size=N/A time=00:02:02.99 bitrate=N/A speed=14.9x    frame= 3146 fps=359 q=-0.0 size=N/A time=00:02:11.21 bitrate=N/A speed=  15x    frame= 3328 fps=359 q=-0.0 size=N/A time=00:02:18.80 bitrate=N/A speed=  15x    frame= 3486 fps=355 q=-0.0 size=N/A time=00:02:25.39 bitrate=N/A speed=14.8x    frame= 3666 fps=355 q=-0.0 size=N/A time=00:02:32.90 bitrate=N/A speed=14.8x    frame= 3849 fps=355 q=-0.0 size=N/A time=00:02:40.53 bitrate=N/A speed=14.8x    frame= 4037 fps=356 q=-0.0 size=N/A time=00:02:48.37 bitrate=N/A speed=14.8x    frame= 4238 fps=357 q=-0.0 size=N/A time=00:02:56.75 bitrate=N/A speed=14.9x    frame= 4478 fps=362 q=-0.0 size=N/A time=00:03:06.76 bitrate=N/A speed=15.1x    frame= 4704 fps=365 q=-0.0 size=N/A time=00:03:16.19 bitrate=N/A speed=15.2x    frame= 4916 fps=366 q=-0.0 size=N/A time=00:03:25.03 bitrate=N/A speed=15.3x    frame= 5105 fps=367 q=-0.0 size=N/A time=00:03:32.92 bitrate=N/A speed=15.3x    frame= 5346 fps=370 q=-0.0 size=N/A time=00:03:42.97 bitrate=N/A speed=15.4x    frame= 5581 fps=373 q=-0.0 size=N/A time=00:03:52.77 bitrate=N/A speed=15.6x    frame= 5773 fps=373 q=-0.0 size=N/A time=00:04:00.78 bitrate=N/A speed=15.6x    frame= 5989 fps=374 q=-0.0 size=N/A time=00:04:09.79 bitrate=N/A speed=15.6x    frame= 6155 fps=373 q=-0.0 size=N/A time=00:04:16.71 bitrate=N/A speed=15.6x    frame= 6378 fps=375 q=-0.0 size=N/A time=00:04:26.01 bitrate=N/A speed=15.6x    frame= 6585 fps=375 q=-0.0 size=N/A time=00:04:34.64 bitrate=N/A speed=15.7x    frame= 6809 fps=377 q=-0.0 size=N/A time=00:04:43.99 bitrate=N/A speed=15.7x    frame= 7017 fps=378 q=-0.0 size=N/A time=00:04:52.66 bitrate=N/A speed=15.8x    frame= 7221 fps=378 q=-0.0 size=N/A time=00:05:01.17 bitrate=N/A speed=15.8x    frame= 7450 fps=380 q=-0.0 size=N/A time=00:05:10.72 bitrate=N/A speed=15.8x    frame= 7665 fps=381 q=-0.0 size=N/A time=00:05:19.69 bitrate=N/A speed=15.9x    frame= 7893 fps=382 q=-0.0 size=N/A time=00:05:29.20 bitrate=N/A speed=  16x    frame= 8117 fps=384 q=-0.0 size=N/A time=00:05:38.54 bitrate=N/A speed=  16x    frame= 8326 fps=384 q=-0.0 size=N/A time=00:05:47.26 bitrate=N/A speed=  16x    frame= 8549 fps=385 q=-0.0 size=N/A time=00:05:56.56 bitrate=N/A speed=16.1x    frame= 8753 fps=386 q=-0.0 size=N/A time=00:06:05.07 bitrate=N/A speed=16.1x    frame= 8978 fps=387 q=-0.0 size=N/A time=00:06:14.45 bitrate=N/A speed=16.1x    frame= 9209 fps=388 q=-0.0 size=N/A time=00:06:24.09 bitrate=N/A speed=16.2x    frame= 9401 fps=388 q=-0.0 size=N/A time=00:06:32.10 bitrate=N/A speed=16.2x    frame= 9612 fps=388 q=-0.0 size=N/A time=00:06:40.90 bitrate=N/A speed=16.2x    frame= 9844 fps=389 q=-0.0 size=N/A time=00:06:50.57 bitrate=N/A speed=16.2x    frame=10080 fps=391 q=-0.0 size=N/A time=00:07:00.42 bitrate=N/A speed=16.3x    frame=10327 fps=392 q=-0.0 size=N/A time=00:07:10.72 bitrate=N/A speed=16.4x    frame=10558 fps=393 q=-0.0 size=N/A time=00:07:20.35 bitrate=N/A speed=16.4x    frame=10800 fps=395 q=-0.0 size=N/A time=00:07:30.45 bitrate=N/A speed=16.5x    frame=11025 fps=395 q=-0.0 size=N/A time=00:07:39.83 bitrate=N/A speed=16.5x    frame=11245 fps=396 q=-0.0 size=N/A time=00:07:49.01 bitrate=N/A speed=16.5x    frame=11468 fps=397 q=-0.0 size=N/A time=00:07:58.31 bitrate=N/A speed=16.5x    frame=11725 fps=398 q=-0.0 size=N/A time=00:08:09.03 bitrate=N/A speed=16.6x    frame=11969 fps=400 q=-0.0 size=N/A time=00:08:19.20 bitrate=N/A speed=16.7x    frame=12185 fps=400 q=-0.0 size=N/A time=00:08:28.21 bitrate=N/A speed=16.7x    frame=12434 fps=401 q=-0.0 size=N/A time=00:08:38.60 bitrate=N/A speed=16.7x    frame=12681 fps=403 q=-0.0 size=N/A time=00:08:48.90 bitrate=N/A speed=16.8x    frame=12888 fps=403 q=-0.0 size=N/A time=00:08:57.53 bitrate=N/A speed=16.8x    frame=13132 fps=404 q=-0.0 size=N/A time=00:09:07.71 bitrate=N/A speed=16.8x    frame=13361 fps=404 q=-0.0 size=N/A time=00:09:17.26 bitrate=N/A speed=16.9x    frame=13602 fps=405 q=-0.0 size=N/A time=00:09:27.31 bitrate=N/A speed=16.9x    frame=13830 fps=406 q=-0.0 size=N/A time=00:09:36.82 bitrate=N/A speed=16.9x    frame=14037 fps=406 q=-0.0 size=N/A time=00:09:45.45 bitrate=N/A speed=16.9x    frame=14262 fps=406 q=-0.0 size=N/A time=00:09:54.84 bitrate=N/A speed=16.9x    frame=14515 fps=407 q=-0.0 size=N/A time=00:10:05.39 bitrate=N/A speed=  17x    frame=14748 fps=408 q=-0.0 size=N/A time=00:10:15.11 bitrate=N/A speed=  17x    frame=14976 fps=409 q=-0.0 size=N/A time=00:10:24.62 bitrate=N/A speed=  17x    frame=15204 fps=409 q=-0.0 size=N/A time=00:10:34.13 bitrate=N/A speed=17.1x    frame=15341 fps=407 q=-0.0 size=N/A time=00:10:39.84 bitrate=N/A speed=  17x    frame=15488 fps=405 q=-0.0 size=N/A time=00:10:45.97 bitrate=N/A speed=16.9x    frame=15693 fps=405 q=-0.0 size=N/A time=00:10:54.52 bitrate=N/A speed=16.9x    frame=15927 fps=406 q=-0.0 size=N/A time=00:11:04.28 bitrate=N/A speed=16.9x    frame=16157 fps=406 q=-0.0 size=N/A time=00:11:13.88 bitrate=N/A speed=16.9x    frame=16413 fps=407 q=-0.0 size=N/A time=00:11:24.55 bitrate=N/A speed=  17x    frame=16661 fps=408 q=-0.0 size=N/A time=00:11:34.90 bitrate=N/A speed=  17x    frame=16875 fps=408 q=-0.0 size=N/A time=00:11:43.82 bitrate=N/A speed=  17x    frame=17121 fps=409 q=-0.0 size=N/A time=00:11:54.08 bitrate=N/A speed=17.1x    frame=17319 fps=409 q=-0.0 size=N/A time=00:12:02.34 bitrate=N/A speed=17.1x    frame=17539 fps=409 q=-0.0 size=N/A time=00:12:11.52 bitrate=N/A speed=17.1x    frame=17763 fps=409 q=-0.0 size=N/A time=00:12:20.86 bitrate=N/A speed=17.1x    frame=17965 fps=409 q=-0.0 size=N/A time=00:12:29.29 bitrate=N/A speed=17.1x    frame=18205 fps=410 q=-0.0 size=N/A time=00:12:39.30 bitrate=N/A speed=17.1x    frame=18417 fps=410 q=-0.0 size=N/A time=00:12:48.14 bitrate=N/A speed=17.1x    frame=18647 fps=410 q=-0.0 size=N/A time=00:12:57.73 bitrate=N/A speed=17.1x    frame=18871 fps=411 q=-0.0 size=N/A time=00:13:07.07 bitrate=N/A speed=17.1x    frame=19112 fps=411 q=-0.0 size=N/A time=00:13:17.12 bitrate=N/A speed=17.2x    frame=19346 fps=412 q=-0.0 size=N/A time=00:13:26.88 bitrate=N/A speed=17.2x    frame=19593 fps=412 q=-0.0 size=N/A time=00:13:37.19 bitrate=N/A speed=17.2x    frame=19796 fps=412 q=-0.0 size=N/A time=00:13:45.65 bitrate=N/A speed=17.2x    frame=20020 fps=413 q=-0.0 size=N/A time=00:13:55.00 bitrate=N/A speed=17.2x    frame=20256 fps=413 q=-0.0 size=N/A time=00:14:04.84 bitrate=N/A speed=17.2x    frame=20504 fps=414 q=-0.0 size=N/A time=00:14:15.18 bitrate=N/A speed=17.3x    frame=20730 fps=414 q=-0.0 size=N/A time=00:14:24.61 bitrate=N/A speed=17.3x    frame=20981 fps=415 q=-0.0 size=N/A time=00:14:35.08 bitrate=N/A speed=17.3x    frame=21205 fps=415 q=-0.0 size=N/A time=00:14:44.42 bitrate=N/A speed=17.3x    frame=21425 fps=415 q=-0.0 size=N/A time=00:14:53.60 bitrate=N/A speed=17.3x    frame=21677 fps=416 q=-0.0 size=N/A time=00:15:04.11 bitrate=N/A speed=17.3x    frame=21919 fps=416 q=-0.0 size=N/A time=00:15:14.20 bitrate=N/A speed=17.4x    frame=22155 fps=416 q=-0.0 size=N/A time=00:15:24.04 bitrate=N/A speed=17.4x    frame=22392 fps=417 q=-0.0 size=N/A time=00:15:33.93 bitrate=N/A speed=17.4x    frame=22632 fps=417 q=-0.0 size=N/A time=00:15:43.94 bitrate=N/A speed=17.4x    frame=22873 fps=418 q=-0.0 size=N/A time=00:15:53.99 bitrate=N/A speed=17.4x    frame=23105 fps=418 q=-0.0 size=N/A time=00:16:03.67 bitrate=N/A speed=17.4x    frame=23350 fps=419 q=-0.0 size=N/A time=00:16:13.88 bitrate=N/A speed=17.5x    frame=23568 fps=419 q=-0.0 size=N/A time=00:16:22.98 bitrate=N/A speed=17.5x    frame=23799 fps=419 q=-0.0 size=N/A time=00:16:32.61 bitrate=N/A speed=17.5x    frame=24038 fps=419 q=-0.0 size=N/A time=00:16:42.58 bitrate=N/A speed=17.5x    frame=24274 fps=420 q=-0.0 size=N/A time=00:16:52.42 bitrate=N/A speed=17.5x    frame=24512 fps=420 q=-0.0 size=N/A time=00:17:02.35 bitrate=N/A speed=17.5x    frame=24746 fps=420 q=-0.0 size=N/A time=00:17:12.11 bitrate=N/A speed=17.5x    frame=24965 fps=420 q=-0.0 size=N/A time=00:17:21.24 bitrate=N/A speed=17.5x    frame=25185 fps=420 q=-0.0 size=N/A time=00:17:30.42 bitrate=N/A speed=17.5x    frame=25405 fps=420 q=-0.0 size=N/A time=00:17:39.60 bitrate=N/A speed=17.5x    frame=25641 fps=421 q=-0.0 size=N/A time=00:17:49.44 bitrate=N/A speed=17.5x    frame=25878 fps=421 q=-0.0 size=N/A time=00:17:59.32 bitrate=N/A speed=17.6x    frame=26121 fps=421 q=-0.0 size=N/A time=00:18:09.46 bitrate=N/A speed=17.6x    frame=26353 fps=422 q=-0.0 size=N/A time=00:18:19.13 bitrate=N/A speed=17.6x    frame=26584 fps=422 q=-0.0 size=N/A time=00:18:28.77 bitrate=N/A speed=17.6x    frame=26812 fps=422 q=-0.0 size=N/A time=00:18:38.28 bitrate=N/A speed=17.6x    frame=27037 fps=422 q=-0.0 size=N/A time=00:18:47.66 bitrate=N/A speed=17.6x    frame=27271 fps=422 q=-0.0 size=N/A time=00:18:57.42 bitrate=N/A speed=17.6x    frame=27502 fps=423 q=-0.0 size=N/A time=00:19:07.06 bitrate=N/A speed=17.6x    frame=27741 fps=423 q=-0.0 size=N/A time=00:19:17.03 bitrate=N/A speed=17.6x    frame=27990 fps=423 q=-0.0 size=N/A time=00:19:27.41 bitrate=N/A speed=17.7x    frame=28219 fps=424 q=-0.0 size=N/A time=00:19:36.96 bitrate=N/A speed=17.7x    frame=28462 fps=424 q=-0.0 size=N/A time=00:19:47.10 bitrate=N/A speed=17.7x    frame=28699 fps=424 q=-0.0 size=N/A time=00:19:56.98 bitrate=N/A speed=17.7x    frame=28907 fps=424 q=-0.0 size=N/A time=00:20:05.66 bitrate=N/A speed=17.7x    frame=29150 fps=424 q=-0.0 size=N/A time=00:20:15.79 bitrate=N/A speed=17.7x    frame=29369 fps=424 q=-0.0 size=N/A time=00:20:24.93 bitrate=N/A speed=17.7x    frame=29617 fps=425 q=-0.0 size=N/A time=00:20:35.27 bitrate=N/A speed=17.7x    frame=29855 fps=425 q=-0.0 size=N/A time=00:20:45.20 bitrate=N/A speed=17.7x    frame=30104 fps=426 q=-0.0 size=N/A time=00:20:55.58 bitrate=N/A speed=17.7x    frame=30336 fps=426 q=-0.0 size=N/A time=00:21:05.26 bitrate=N/A speed=17.8x    frame=30585 fps=426 q=-0.0 size=N/A time=00:21:15.64 bitrate=N/A speed=17.8x    frame=30801 fps=426 q=-0.0 size=N/A time=00:21:24.65 bitrate=N/A speed=17.8x    frame=31045 fps=426 q=-0.0 size=N/A time=00:21:34.83 bitrate=N/A speed=17.8x    frame=31280 fps=427 q=-0.0 size=N/A time=00:21:44.63 bitrate=N/A speed=17.8x    frame=31509 fps=427 q=-0.0 size=N/A time=00:21:54.18 bitrate=N/A speed=17.8x    frame=31741 fps=427 q=-0.0 size=N/A time=00:22:03.86 bitrate=N/A speed=17.8x    frame=31970 fps=427 q=-0.0 size=N/A time=00:22:13.41 bitrate=N/A speed=17.8x    frame=32193 fps=427 q=-0.0 size=N/A time=00:22:22.71 bitrate=N/A speed=17.8x    frame=32443 fps=427 q=-0.0 size=N/A time=00:22:33.14 bitrate=N/A speed=17.8x    frame=32658 fps=427 q=-0.0 size=N/A time=00:22:42.11 bitrate=N/A speed=17.8x    frame=32897 fps=428 q=-0.0 size=N/A time=00:22:52.07 bitrate=N/A speed=17.8x    frame=33132 fps=428 q=-0.0 size=N/A time=00:23:01.88 bitrate=N/A speed=17.8x    frame=33345 fps=428 q=-0.0 size=N/A time=00:23:10.76 bitrate=N/A speed=17.8x    frame=33556 fps=428 q=-0.0 size=N/A time=00:23:19.56 bitrate=N/A speed=17.8x    frame=33762 fps=427 q=-0.0 size=N/A time=00:23:28.15 bitrate=N/A speed=17.8x    frame=34001 fps=428 q=-0.0 size=N/A time=00:23:38.12 bitrate=N/A speed=17.8x    frame=34254 fps=428 q=-0.0 size=N/A time=00:23:48.67 bitrate=N/A speed=17.9x    frame=34498 fps=428 q=-0.0 size=N/A time=00:23:58.85 bitrate=N/A speed=17.9x    frame=34713 fps=428 q=-0.0 size=N/A time=00:24:07.82 bitrate=N/A speed=17.9x    frame=34922 fps=428 q=-0.0 size=N/A time=00:24:16.53 bitrate=N/A speed=17.9x    frame=35158 fps=428 q=-0.0 size=N/A time=00:24:26.38 bitrate=N/A speed=17.9x    [Parsed_psnr_10 @ 0000017ececb0a80] PSNR y:49.172793 u:51.588887 v:51.800725 average:49.862175 min:37.687346 max:inf
[out#0/null @ 0000017ecbb83b80] video:15170KiB audio:276112KiB subtitle:0KiB other streams:0KiB global headers:0KiB muxing overhead: unknown
frame=35305 fps=429 q=-0.0 Lsize=N/A time=00:24:32.51 bitrate=N/A speed=17.9x    
